<svg xmlns="http://www.w3.org/2000/svg"  viewBox="0 0 50 50" width="250px" height="250px"><path d="M 9 4.5 C 6.519 4.5 4.5 6.519 4.5 9 L 4.5 41 C 4.5 43.481 6.519 45.5 9 45.5 L 41 45.5 C 43.481 45.5 45.5 43.481 45.5 41 L 45.5 9 C 45.5 6.519 43.481 4.5 41 4.5 L 9 4.5 z M 9 5.5 L 41 5.5 C 42.93 5.5 44.5 7.07 44.5 9 L 44.5 41 C 44.5 42.93 42.93 44.5 41 44.5 L 9 44.5 C 7.07 44.5 5.5 42.93 5.5 41 L 5.5 9 C 5.5 7.07 7.07 5.5 9 5.5 z M 36.228516 20.757812 L 34.388672 21.445312 L 34.140625 22.484375 L 33.492188 22.517578 L 33.324219 23.949219 L 33.923828 23.949219 L 33.611328 26.15625 C 33.419328 27.52425 33.668953 28.173828 34.876953 28.173828 C 35.588953 28.173828 36.20325 27.916234 36.53125 27.740234 L 36.748047 26.421875 C 36.508047 26.541875 36.11575 26.701172 35.84375 26.701172 C 35.48375 26.701172 35.443625 26.516281 35.515625 25.988281 L 35.796875 23.949219 L 37.027344 23.949219 C 37.067344 23.645219 37.219766 22.660375 37.259766 22.484375 L 35.996094 22.484375 L 36.228516 20.757812 z M 30.699219 22.214844 C 30.530613 22.217453 30.354875 22.230906 30.171875 22.253906 C 29.403875 22.349906 28.731125 22.580766 28.203125 22.884766 L 28.587891 24.037109 C 28.979891 23.821109 29.491531 23.628453 30.019531 23.564453 C 30.803531 23.468453 31.123875 23.717187 31.171875 24.117188 C 31.187875 24.277187 31.178109 24.413016 31.162109 24.541016 L 31.138672 24.621094 C 30.658672 24.525094 30.147062 24.492453 29.539062 24.564453 C 28.779063 24.660453 28.163297 24.965313 27.779297 25.445312 C 27.499297 25.813312 27.331172 26.421031 27.451172 26.957031 C 27.635172 27.813031 28.259125 28.188359 29.203125 28.068359 C 29.867125 27.988359 30.394484 27.669578 30.771484 27.142578 C 30.755484 27.326578 30.748609 27.469844 30.724609 27.589844 C 30.692609 27.765844 30.659141 27.909672 30.619141 28.013672 L 32.435547 28.013672 C 32.427547 27.757672 32.427547 27.582516 32.435547 27.478516 C 32.483547 26.805516 32.604875 25.804563 32.796875 24.476562 C 32.836875 24.204563 32.828875 23.901281 32.796875 23.613281 C 32.684875 22.675281 31.879457 22.196578 30.699219 22.214844 z M 40.261719 22.316406 C 38.516719 22.316406 37.179688 23.876234 37.179688 25.740234 C 37.179688 27.140234 37.980641 28.212891 39.556641 28.212891 C 41.309641 28.212891 42.636719 26.651297 42.636719 24.779297 C 42.636719 23.387297 41.853719 22.316406 40.261719 22.316406 z M 23.042969 22.371094 C 22.258969 22.371094 21.402359 23.051688 20.818359 24.179688 C 20.970359 23.443688 20.938625 22.603734 20.890625 22.427734 C 20.282625 22.531734 19.753766 22.587516 19.009766 22.603516 C 19.033766 23.115516 19.00225 23.787922 18.90625 24.419922 L 18.658203 26.091797 C 18.562203 26.747797 18.457703 27.508281 18.345703 27.988281 L 20.322266 27.988281 C 20.330266 27.700281 20.409031 27.243937 20.457031 26.835938 L 20.626953 25.683594 C 20.762953 24.939594 21.362359 24.052734 21.818359 24.052734 C 22.082359 24.052734 22.073953 24.307109 22.001953 24.787109 L 21.810547 26.083984 C 21.714547 26.739984 21.610047 27.500469 21.498047 27.980469 L 23.498047 27.980469 C 23.506047 27.692469 23.570953 27.236125 23.626953 26.828125 L 23.794922 25.675781 C 23.930922 24.931781 24.530328 24.044922 24.986328 24.044922 C 25.250328 24.044922 25.241172 24.291141 25.201172 24.619141 L 24.722656 27.964844 L 26.546875 27.964844 L 27.201172 24.179688 C 27.337172 23.227688 27.266938 22.371094 26.210938 22.371094 C 25.442937 22.371094 24.617203 23.019609 24.033203 24.099609 C 24.161203 23.203609 24.090969 22.371094 23.042969 22.371094 z M 15.912109 22.388672 C 14.191109 22.388672 12.871094 23.925625 12.871094 25.765625 C 12.871094 27.149625 13.670656 28.205078 15.222656 28.205078 C 16.959656 28.205078 18.263672 26.6605 18.263672 24.8125 C 18.263672 23.4445 17.488109 22.388672 15.912109 22.388672 z M 12.902344 22.515625 C 12.262344 22.547625 11.695688 22.564453 10.679688 22.564453 C 9.5916875 22.564453 9.25425 22.54725 8.40625 22.53125 C 8.33425 23.09925 8.2543906 23.667687 8.1503906 24.179688 C 8.6303906 24.163688 9.0548437 24.15625 10.214844 24.15625 L 7.5664062 27.021484 L 7.5429688 28.044922 C 8.1909687 27.996922 8.9977812 27.988281 9.9257812 27.988281 C 10.757781 27.988281 11.589188 27.996922 12.117188 28.044922 C 12.213188 27.372922 12.309687 26.924859 12.429688 26.380859 C 12.029687 26.404859 11.326656 26.412109 10.222656 26.412109 L 12.871094 23.53125 L 12.902344 22.515625 z M 15.712891 23.869141 C 16.080891 23.869141 16.304688 24.204578 16.304688 24.892578 C 16.304688 25.900578 15.904578 26.724609 15.392578 26.724609 C 15.008578 26.724609 14.783203 26.381172 14.783203 25.701172 C 14.783203 24.684172 15.200891 23.868141 15.712891 23.869141 z M 40.021484 23.869141 C 40.389484 23.869141 40.613281 24.204578 40.613281 24.892578 C 40.613281 25.900578 40.213172 26.724609 39.701172 26.724609 C 39.317172 26.724609 39.09375 26.381172 39.09375 25.701172 C 39.09375 24.684172 39.509484 23.868141 40.021484 23.869141 z M 30.525391 25.427734 C 30.715391 25.441734 30.891156 25.469953 31.035156 25.501953 L 31.019531 25.677734 C 30.907531 26.317734 30.451297 26.964922 29.779297 27.044922 C 29.323297 27.100922 28.930625 26.828563 28.890625 26.476562 C 28.866625 26.244563 28.930594 26.044953 29.058594 25.876953 C 29.226594 25.644953 29.547641 25.4855 29.931641 25.4375 C 30.131641 25.4135 30.335391 25.413734 30.525391 25.427734 z"/></svg>